<svg width="102" height="102" viewBox="0 0 102 102" fill="none" xmlns="http://www.w3.org/2000/svg">
<path d="M26.1715 59.8082V79.7598M26.1715 67.4816C26.1715 65.4462 26.98 63.4942 28.4193 62.0549C29.8585 60.6157 31.8105 59.8071 33.8459 59.8071C35.8813 59.8071 37.8333 60.6157 39.2726 62.0549C40.7118 63.4942 41.5204 65.4462 41.5204 67.4816V79.7598L26.1715 67.4816Z" stroke="#C120CF" stroke-linecap="round"/>
<path d="M75.9602 75.9221C75.3165 77.0875 74.3713 78.0584 73.2236 78.7331C72.0759 79.4079 70.7679 79.7618 69.4365 79.7577C67.4037 79.7515 65.4558 78.9414 64.0182 77.5042C62.5805 76.0669 61.7699 74.1193 61.7631 72.0865V67.097C61.7631 65.0619 62.5716 63.1101 64.0106 61.6711C65.4496 60.232 67.4014 59.4236 69.4365 59.4236C71.4716 59.4236 73.4234 60.232 74.8624 61.6711C76.3014 63.1101 77.1099 65.0619 77.1099 67.097V69.783H61.7631M41.5182 67.4816C41.5182 65.4462 42.3268 63.4942 43.766 62.0549C45.2053 60.6157 47.1573 59.8071 49.1927 59.8071C51.2281 59.8071 53.1801 60.6157 54.6193 62.0549C56.0586 63.4942 56.8671 65.4462 56.8671 67.4816V79.7598L41.5182 67.4816Z" stroke="#C120CF" stroke-linecap="round"/>
<path d="M26.3606 26.45C27.2408 26.45 27.9544 25.7364 27.9544 24.8562C27.9544 23.976 27.2408 23.2625 26.3606 23.2625C25.4804 23.2625 24.7669 23.976 24.7669 24.8562C24.7669 25.7364 25.4804 26.45 26.3606 26.45Z" fill="#C120CF"/>
<path d="M26.35 46.9136L26.3627 29.2336M46.0912 49.3807C48.0151 50.7005 50.3495 51.2843 52.6681 51.0255H54.315C55.7142 50.9976 57.0468 50.4221 58.0265 49.4227C59.0061 48.4233 59.5549 47.0796 59.5549 45.68C59.5549 44.2805 59.0061 42.9368 58.0265 41.9374C57.0468 40.9379 55.7142 40.3625 54.315 40.3346H50.6132C49.214 40.3067 47.8815 39.7313 46.9018 38.7318C45.9221 37.7324 45.3733 36.3887 45.3733 34.9892C45.3733 33.5897 45.9221 32.2459 46.9018 31.2465C47.8815 30.2471 49.214 29.6716 50.6132 29.6437H52.258C55.9597 29.6437 57.6045 30.0539 58.837 31.2885L46.0912 49.3807ZM26.35 46.9136C26.3165 47.4621 26.3998 48.0115 26.5945 48.5254C26.7892 49.0393 27.0907 49.5061 27.4792 49.8947C27.8677 50.2834 28.3342 50.5852 28.8481 50.7801C29.3619 50.9751 29.9112 51.0587 30.4597 51.0255C32.4547 51.2272 34.4491 50.6365 36.0124 49.3807L26.35 46.9136ZM36.4246 22.2402V46.9115C36.3908 47.4604 36.4739 48.0102 36.6686 48.5245C36.8632 49.0388 37.1649 49.5059 37.5537 49.8949C37.9424 50.2838 38.4094 50.5858 38.9236 50.7807C39.4378 50.9756 39.9876 51.059 40.5365 51.0255C42.5315 51.2272 44.5258 50.6365 46.0891 49.3807L36.4246 22.2402ZM36.4246 29.2315H42.0559H36.4246Z" stroke="#C120CF" stroke-linecap="round"/>
<path d="M51 96.6875C76.2325 96.6875 96.6875 76.2325 96.6875 51C96.6875 25.7675 76.2325 5.3125 51 5.3125C25.7675 5.3125 5.3125 25.7675 5.3125 51C5.3125 76.2325 25.7675 96.6875 51 96.6875Z" stroke="#C120CF" stroke-linecap="round"/>
</svg>
